<?xml version="1.0" encoding="utf-8"?>
<!-- Generator: Adobe Illustrator 16.0.0, SVG Export Plug-In . SVG Version: 6.00 Build 0)  -->
<!DOCTYPE svg PUBLIC "-//W3C//DTD SVG 1.1//EN" "http://www.w3.org/Graphics/SVG/1.1/DTD/svg11.dtd">
<svg version="1.1" id="Layer_1" xmlns="http://www.w3.org/2000/svg" xmlns:xlink="http://www.w3.org/1999/xlink" x="0px" y="0px"
	 width="421px" height="148px" viewBox="0 0 421 148" enable-background="new 0 0 421 148" xml:space="preserve">
<g>
	<defs>
		<rect id="SVGID_1_" x="-71" y="-87.04" width="375" height="375"/>
	</defs>
	<clipPath id="SVGID_2_">
		<use xlink:href="#SVGID_1_"  overflow="visible"/>
	</clipPath>
</g>
<g>
	<defs>
		<rect id="SVGID_3_" x="-71" y="-87.04" width="375" height="375"/>
	</defs>
	<clipPath id="SVGID_4_">
		<use xlink:href="#SVGID_3_"  overflow="visible"/>
	</clipPath>
</g>
<g>
	<defs>
		<rect id="SVGID_5_" x="-71" y="-87.04" width="375" height="375"/>
	</defs>
	<clipPath id="SVGID_6_">
		<use xlink:href="#SVGID_5_"  overflow="visible"/>
	</clipPath>
	<g clip-path="url(#SVGID_6_)">
		<path fill="#323335" d="M40,119.878c0.052,0.126,0.154,0.21,0.305,0.254c0.152,0.043,0.392,0.064,0.722,0.064
			c0.026,0,0.039,0.026,0.039,0.078s-0.013,0.078-0.039,0.078c-0.26,0-0.468-0.004-0.624-0.013l-0.923-0.014l-0.897,0.014
			c-0.156,0.009-0.368,0.013-0.637,0.013c-0.026,0-0.039-0.026-0.039-0.078s0.013-0.078,0.039-0.078c0.329,0,0.57-0.021,0.721-0.064
			c0.152-0.044,0.256-0.128,0.312-0.254c0.056-0.125,0.084-0.318,0.084-0.578v-6.018c0-0.261-0.028-0.451-0.084-0.572
			s-0.16-0.206-0.312-0.253c-0.151-0.048-0.392-0.072-0.721-0.072c-0.026,0-0.039-0.025-0.039-0.078
			c0-0.052,0.013-0.077,0.039-0.077l0.637,0.013c0.364,0.018,0.663,0.026,0.897,0.026c0.26,0,0.572-0.009,0.936-0.026l0.611-0.013
			c0.026,0,0.039,0.025,0.039,0.077c0,0.053-0.013,0.078-0.039,0.078c-0.321,0-0.557,0.026-0.708,0.078
			c-0.152,0.052-0.256,0.141-0.312,0.267s-0.084,0.318-0.084,0.578v5.992C39.922,119.56,39.948,119.753,40,119.878z"/>
	</g>
	<g clip-path="url(#SVGID_6_)">
		<path fill="#323335" d="M55.585,112.307c0,0.053-0.013,0.078-0.039,0.078c-0.294,0-0.55,0.078-0.767,0.234
			c-0.217,0.156-0.399,0.42-0.546,0.793l-2.769,6.928c-0.009,0.034-0.057,0.052-0.143,0.052c-0.069,0-0.117-0.018-0.143-0.052
			l-3.236-7.032c-0.147-0.338-0.303-0.576-0.468-0.715c-0.165-0.139-0.377-0.208-0.637-0.208c-0.026,0-0.039-0.025-0.039-0.078
			c0-0.052,0.013-0.077,0.039-0.077l0.494,0.013c0.243,0.018,0.438,0.026,0.585,0.026c0.346,0,0.719-0.009,1.118-0.026l0.533-0.013
			c0.026,0,0.039,0.025,0.039,0.077c0,0.053-0.013,0.078-0.039,0.078c-0.537,0-0.806,0.152-0.806,0.455
			c0,0.104,0.039,0.243,0.117,0.416l2.716,5.953l2.339-5.862c0.069-0.182,0.104-0.325,0.104-0.429c0-0.182-0.083-0.316-0.247-0.403
			c-0.165-0.086-0.42-0.13-0.767-0.13c-0.026,0-0.039-0.025-0.039-0.078c0-0.052,0.013-0.077,0.039-0.077l0.559,0.013
			c0.294,0.018,0.563,0.026,0.806,0.026c0.182,0,0.385-0.009,0.611-0.026l0.546-0.013C55.572,112.229,55.585,112.255,55.585,112.307
			z"/>
	</g>
	<g clip-path="url(#SVGID_6_)">
		<path fill="#323335" d="M69.843,120.274c0,0.052-0.018,0.078-0.052,0.078c-0.165,0-0.42-0.009-0.767-0.026
			c-0.347-0.017-0.598-0.025-0.754-0.025c-0.19,0-0.433,0.009-0.728,0.025c-0.278,0.018-0.49,0.026-0.637,0.026
			c-0.035,0-0.052-0.026-0.052-0.078s0.017-0.078,0.052-0.078c0.321,0,0.555-0.03,0.702-0.091c0.147-0.061,0.221-0.164,0.221-0.312
			c0-0.121-0.056-0.308-0.169-0.56l-1.157-2.456H63.41l-0.819,1.924c-0.122,0.294-0.182,0.532-0.182,0.715
			c0,0.269,0.106,0.466,0.318,0.591c0.212,0.126,0.531,0.188,0.956,0.188c0.043,0,0.065,0.026,0.065,0.078s-0.022,0.078-0.065,0.078
			c-0.156,0-0.381-0.009-0.676-0.026c-0.33-0.017-0.616-0.025-0.858-0.025c-0.226,0-0.485,0.009-0.78,0.025
			c-0.26,0.018-0.477,0.026-0.65,0.026c-0.043,0-0.065-0.026-0.065-0.078s0.021-0.078,0.065-0.078c0.242,0,0.448-0.045,0.617-0.136
			c0.169-0.092,0.329-0.252,0.481-0.481c0.151-0.229,0.318-0.561,0.5-0.994l2.742-6.473c0.018-0.026,0.048-0.039,0.091-0.039
			c0.043,0,0.069,0.013,0.078,0.039l3.067,6.46c0.295,0.641,0.546,1.072,0.754,1.293s0.455,0.331,0.741,0.331
			C69.826,120.196,69.843,120.223,69.843,120.274z M63.514,116.519h2.872l-1.521-3.211L63.514,116.519z"/>
	</g>
	<g clip-path="url(#SVGID_6_)">
		<path fill="#323335" d="M84.219,112.307c0,0.053-0.013,0.078-0.039,0.078c-0.364,0-0.628,0.1-0.793,0.299
			c-0.165,0.2-0.247,0.524-0.247,0.976v6.85c0,0.017-0.021,0.03-0.065,0.039c-0.043,0.008-0.074,0.004-0.091-0.014l-5.979-7.239
			l-0.117-0.13v5.771c0,0.451,0.08,0.773,0.241,0.969c0.16,0.194,0.418,0.292,0.773,0.292c0.026,0,0.039,0.026,0.039,0.078
			s-0.013,0.078-0.039,0.078c-0.217,0-0.381-0.004-0.494-0.013l-0.65-0.014l-0.663,0.014c-0.122,0.009-0.299,0.013-0.533,0.013
			c-0.017,0-0.026-0.026-0.026-0.078s0.009-0.078,0.026-0.078c0.373,0,0.637-0.098,0.793-0.292c0.156-0.195,0.234-0.518,0.234-0.969
			v-6.083c-0.338-0.312-0.68-0.468-1.027-0.468c-0.026,0-0.039-0.025-0.039-0.078c0-0.052,0.013-0.077,0.039-0.077l0.481,0.013
			c0.104,0.009,0.247,0.013,0.429,0.013c0.19,0,0.346-0.004,0.468-0.013c0.121-0.009,0.216-0.013,0.286-0.013
			c0.069,0,0.119,0.015,0.149,0.045c0.03,0.03,0.08,0.098,0.149,0.201c0.104,0.156,0.208,0.3,0.312,0.43l5.004,6.147v-5.394
			c0-0.451-0.076-0.775-0.228-0.976c-0.152-0.199-0.405-0.299-0.76-0.299c-0.018,0-0.026-0.025-0.026-0.078
			c0-0.052,0.008-0.077,0.026-0.077l0.507,0.013c0.26,0.018,0.472,0.026,0.637,0.026c0.156,0,0.373-0.009,0.65-0.026l0.533-0.013
			C84.206,112.229,84.219,112.255,84.219,112.307z"/>
	</g>
	<g clip-path="url(#SVGID_6_)">
		<path fill="#323335" d="M98.815,120.274c0,0.052-0.018,0.078-0.052,0.078c-0.165,0-0.42-0.009-0.767-0.026
			c-0.347-0.017-0.598-0.025-0.754-0.025c-0.19,0-0.433,0.009-0.728,0.025c-0.278,0.018-0.49,0.026-0.637,0.026
			c-0.035,0-0.052-0.026-0.052-0.078s0.017-0.078,0.052-0.078c0.321,0,0.555-0.03,0.702-0.091c0.147-0.061,0.221-0.164,0.221-0.312
			c0-0.121-0.056-0.308-0.169-0.56l-1.157-2.456h-3.093l-0.819,1.924c-0.122,0.294-0.182,0.532-0.182,0.715
			c0,0.269,0.106,0.466,0.318,0.591c0.212,0.126,0.531,0.188,0.956,0.188c0.043,0,0.065,0.026,0.065,0.078s-0.022,0.078-0.065,0.078
			c-0.156,0-0.381-0.009-0.676-0.026c-0.33-0.017-0.616-0.025-0.858-0.025c-0.226,0-0.485,0.009-0.78,0.025
			c-0.26,0.018-0.477,0.026-0.65,0.026c-0.043,0-0.065-0.026-0.065-0.078s0.021-0.078,0.065-0.078c0.242,0,0.448-0.045,0.617-0.136
			c0.169-0.092,0.329-0.252,0.481-0.481c0.151-0.229,0.318-0.561,0.5-0.994l2.742-6.473c0.018-0.026,0.048-0.039,0.091-0.039
			c0.043,0,0.069,0.013,0.078,0.039l3.067,6.46c0.295,0.641,0.546,1.072,0.754,1.293s0.455,0.331,0.741,0.331
			C98.797,120.196,98.815,120.223,98.815,120.274z M92.485,116.519h2.872l-1.521-3.211L92.485,116.519z"/>
	</g>
	<g clip-path="url(#SVGID_6_)">
		<path fill="#323335" d="M114.906,119.878c0.052,0.126,0.154,0.21,0.305,0.254c0.152,0.043,0.392,0.064,0.722,0.064
			c0.026,0,0.039,0.026,0.039,0.078s-0.013,0.078-0.039,0.078c-0.26,0-0.468-0.004-0.624-0.013l-0.923-0.014l-0.897,0.014
			c-0.156,0.009-0.368,0.013-0.637,0.013c-0.026,0-0.039-0.026-0.039-0.078s0.013-0.078,0.039-0.078c0.329,0,0.57-0.021,0.721-0.064
			c0.152-0.044,0.256-0.128,0.312-0.254c0.056-0.125,0.084-0.318,0.084-0.578v-6.018c0-0.261-0.028-0.451-0.084-0.572
			s-0.16-0.206-0.312-0.253c-0.151-0.048-0.392-0.072-0.721-0.072c-0.026,0-0.039-0.025-0.039-0.078
			c0-0.052,0.013-0.077,0.039-0.077l0.637,0.013c0.364,0.018,0.663,0.026,0.897,0.026c0.26,0,0.572-0.009,0.936-0.026l0.611-0.013
			c0.026,0,0.039,0.025,0.039,0.077c0,0.053-0.013,0.078-0.039,0.078c-0.321,0-0.557,0.026-0.708,0.078
			c-0.152,0.052-0.256,0.141-0.312,0.267s-0.084,0.318-0.084,0.578v5.992C114.828,119.56,114.854,119.753,114.906,119.878z"/>
	</g>
	<g clip-path="url(#SVGID_6_)">
		<path fill="#323335" d="M130.491,112.307c0,0.053-0.013,0.078-0.039,0.078c-0.295,0-0.551,0.078-0.767,0.234
			c-0.217,0.156-0.398,0.42-0.546,0.793l-2.769,6.928c-0.009,0.034-0.057,0.052-0.144,0.052c-0.069,0-0.116-0.018-0.143-0.052
			l-3.236-7.032c-0.147-0.338-0.304-0.576-0.468-0.715c-0.165-0.139-0.377-0.208-0.637-0.208c-0.026,0-0.039-0.025-0.039-0.078
			c0-0.052,0.013-0.077,0.039-0.077l0.493,0.013c0.243,0.018,0.438,0.026,0.585,0.026c0.347,0,0.72-0.009,1.118-0.026l0.533-0.013
			c0.025,0,0.039,0.025,0.039,0.077c0,0.053-0.014,0.078-0.039,0.078c-0.538,0-0.807,0.152-0.807,0.455
			c0,0.104,0.039,0.243,0.117,0.416l2.717,5.953l2.34-5.862c0.069-0.182,0.104-0.325,0.104-0.429c0-0.182-0.082-0.316-0.247-0.403
			c-0.164-0.086-0.42-0.13-0.767-0.13c-0.026,0-0.039-0.025-0.039-0.078c0-0.052,0.013-0.077,0.039-0.077l0.559,0.013
			c0.295,0.018,0.563,0.026,0.806,0.026c0.183,0,0.386-0.009,0.611-0.026l0.546-0.013
			C130.479,112.229,130.491,112.255,130.491,112.307z"/>
	</g>
	<g clip-path="url(#SVGID_6_)">
		<path fill="#323335" d="M144.749,120.274c0,0.052-0.018,0.078-0.053,0.078c-0.164,0-0.42-0.009-0.767-0.026
			c-0.347-0.017-0.598-0.025-0.754-0.025c-0.19,0-0.434,0.009-0.728,0.025c-0.277,0.018-0.49,0.026-0.637,0.026
			c-0.035,0-0.053-0.026-0.053-0.078s0.018-0.078,0.053-0.078c0.32,0,0.554-0.03,0.701-0.091s0.222-0.164,0.222-0.312
			c0-0.121-0.057-0.308-0.169-0.56l-1.157-2.456h-3.094l-0.818,1.924c-0.121,0.294-0.182,0.532-0.182,0.715
			c0,0.269,0.105,0.466,0.318,0.591c0.212,0.126,0.53,0.188,0.955,0.188c0.043,0,0.064,0.026,0.064,0.078s-0.021,0.078-0.064,0.078
			c-0.156,0-0.382-0.009-0.676-0.026c-0.33-0.017-0.615-0.025-0.858-0.025c-0.225,0-0.485,0.009-0.779,0.025
			c-0.26,0.018-0.477,0.026-0.65,0.026c-0.043,0-0.064-0.026-0.064-0.078s0.021-0.078,0.064-0.078c0.243,0,0.448-0.045,0.618-0.136
			c0.169-0.092,0.329-0.252,0.48-0.481s0.318-0.561,0.5-0.994l2.743-6.473c0.017-0.026,0.047-0.039,0.091-0.039
			c0.043,0,0.069,0.013,0.078,0.039l3.067,6.46c0.294,0.641,0.546,1.072,0.754,1.293s0.454,0.331,0.74,0.331
			C144.731,120.196,144.749,120.223,144.749,120.274z M138.419,116.519h2.872l-1.521-3.211L138.419,116.519z"/>
	</g>
	<g clip-path="url(#SVGID_6_)">
		<path fill="#323335" d="M159.124,112.307c0,0.053-0.014,0.078-0.039,0.078c-0.364,0-0.629,0.1-0.793,0.299
			c-0.165,0.2-0.247,0.524-0.247,0.976v6.85c0,0.017-0.021,0.03-0.064,0.039c-0.044,0.008-0.074,0.004-0.092-0.014l-5.979-7.239
			l-0.117-0.13v5.771c0,0.451,0.08,0.773,0.24,0.969c0.161,0.194,0.418,0.292,0.773,0.292c0.026,0,0.039,0.026,0.039,0.078
			s-0.013,0.078-0.039,0.078c-0.217,0-0.381-0.004-0.493-0.013l-0.65-0.014L151,120.34c-0.121,0.009-0.299,0.013-0.532,0.013
			c-0.018,0-0.026-0.026-0.026-0.078s0.009-0.078,0.026-0.078c0.372,0,0.637-0.098,0.793-0.292c0.155-0.195,0.233-0.518,0.233-0.969
			v-6.083c-0.338-0.312-0.681-0.468-1.026-0.468c-0.026,0-0.039-0.025-0.039-0.078c0-0.052,0.013-0.077,0.039-0.077l0.48,0.013
			c0.104,0.009,0.247,0.013,0.429,0.013c0.19,0,0.347-0.004,0.468-0.013c0.122-0.009,0.217-0.013,0.286-0.013
			s0.119,0.015,0.149,0.045s0.08,0.098,0.149,0.201c0.104,0.156,0.208,0.3,0.313,0.43l5.004,6.147v-5.394
			c0-0.451-0.076-0.775-0.228-0.976c-0.151-0.199-0.405-0.299-0.761-0.299c-0.017,0-0.025-0.025-0.025-0.078
			c0-0.052,0.009-0.077,0.025-0.077l0.508,0.013c0.26,0.018,0.472,0.026,0.637,0.026c0.155,0,0.372-0.009,0.649-0.026l0.533-0.013
			C159.11,112.229,159.124,112.255,159.124,112.307z"/>
	</g>
	<g clip-path="url(#SVGID_6_)">
		<path fill="#323335" d="M167.65,120.365c-0.121-0.009-0.275-0.017-0.461-0.025c-0.187-0.009-0.393-0.014-0.618-0.014l-0.884,0.014
			c-0.155,0.009-0.372,0.013-0.649,0.013c-0.018,0-0.026-0.026-0.026-0.078s0.009-0.078,0.026-0.078
			c0.329,0,0.569-0.021,0.722-0.064c0.151-0.044,0.255-0.128,0.312-0.254c0.057-0.125,0.084-0.318,0.084-0.578v-6.018
			c0-0.261-0.025-0.451-0.077-0.572c-0.053-0.121-0.154-0.206-0.306-0.253c-0.152-0.048-0.393-0.072-0.722-0.072
			c-0.018,0-0.025-0.025-0.025-0.078c0-0.052,0.008-0.077,0.025-0.077l0.65,0.013c0.363,0.018,0.653,0.026,0.87,0.026
			c0.329,0,0.654-0.014,0.976-0.039c0.381-0.018,0.645-0.026,0.792-0.026c0.901,0,1.701,0.174,2.398,0.52
			c0.697,0.347,1.236,0.819,1.618,1.417c0.381,0.598,0.572,1.27,0.572,2.015c0,0.841-0.197,1.584-0.592,2.229
			s-0.93,1.144-1.605,1.494c-0.676,0.352-1.412,0.526-2.209,0.526C168.27,120.404,167.979,120.392,167.65,120.365z M170.237,119.774
			c0.537-0.29,0.955-0.72,1.254-1.287s0.448-1.25,0.448-2.047c0-0.754-0.143-1.438-0.429-2.054s-0.693-1.101-1.222-1.456
			c-0.528-0.354-1.14-0.532-1.833-0.532c-0.372,0-0.66,0.021-0.864,0.064c-0.203,0.044-0.354,0.13-0.448,0.26
			c-0.096,0.13-0.143,0.325-0.143,0.585v5.85c0,0.26,0.036,0.463,0.11,0.61c0.073,0.147,0.212,0.258,0.416,0.331
			c0.203,0.074,0.491,0.111,0.864,0.111C169.084,120.21,169.699,120.064,170.237,119.774z"/>
	</g>
	<g clip-path="url(#SVGID_6_)">
		<path fill="#323335" d="M181.427,119.878c0.053,0.126,0.154,0.21,0.306,0.254c0.151,0.043,0.393,0.064,0.722,0.064
			c0.025,0,0.039,0.026,0.039,0.078s-0.014,0.078-0.039,0.078c-0.26,0-0.468-0.004-0.624-0.013l-0.923-0.014l-0.896,0.014
			c-0.156,0.009-0.369,0.013-0.637,0.013c-0.026,0-0.039-0.026-0.039-0.078s0.013-0.078,0.039-0.078
			c0.329,0,0.569-0.021,0.721-0.064c0.151-0.044,0.256-0.128,0.313-0.254c0.056-0.125,0.084-0.318,0.084-0.578v-6.018
			c0-0.261-0.028-0.451-0.084-0.572c-0.057-0.121-0.161-0.206-0.313-0.253c-0.151-0.048-0.392-0.072-0.721-0.072
			c-0.026,0-0.039-0.025-0.039-0.078c0-0.052,0.013-0.077,0.039-0.077l0.637,0.013c0.363,0.018,0.662,0.026,0.896,0.026
			c0.26,0,0.572-0.009,0.936-0.026l0.611-0.013c0.025,0,0.039,0.025,0.039,0.077c0,0.053-0.014,0.078-0.039,0.078
			c-0.32,0-0.557,0.026-0.708,0.078c-0.152,0.052-0.256,0.141-0.313,0.267s-0.084,0.318-0.084,0.578v5.992
			C181.35,119.56,181.375,119.753,181.427,119.878z"/>
	</g>
	<g clip-path="url(#SVGID_6_)">
		<path fill="#323335" d="M194.998,112.203c0.372,0.078,0.745,0.213,1.118,0.403c0.061,0.034,0.095,0.064,0.104,0.091
			c0.009,0.025,0.021,0.091,0.039,0.194l0.156,1.547c0,0.026-0.024,0.041-0.071,0.046c-0.048,0.004-0.076-0.007-0.085-0.032
			c-0.398-1.447-1.291-2.171-2.678-2.171c-0.728,0-1.369,0.16-1.924,0.48c-0.554,0.321-0.983,0.778-1.286,1.371
			c-0.304,0.594-0.455,1.285-0.455,2.073c0,0.754,0.167,1.445,0.5,2.073c0.334,0.629,0.784,1.124,1.353,1.488
			c0.567,0.364,1.185,0.546,1.852,0.546c0.711,0,1.287-0.173,1.729-0.52c0.442-0.347,0.78-0.875,1.014-1.586
			c0-0.018,0.022-0.026,0.065-0.026c0.061,0,0.091,0.014,0.091,0.039l-0.13,1.43c-0.009,0.104-0.021,0.169-0.039,0.195
			s-0.052,0.057-0.104,0.091c-0.451,0.217-0.873,0.368-1.268,0.455s-0.847,0.13-1.358,0.13c-0.909,0-1.722-0.18-2.437-0.539
			s-1.272-0.864-1.671-1.515c-0.398-0.649-0.598-1.395-0.598-2.235c0-0.814,0.204-1.536,0.611-2.164s0.968-1.115,1.683-1.462
			s1.519-0.521,2.411-0.521C194.166,112.086,194.625,112.125,194.998,112.203z M192.034,111.54c-0.034,0-0.056-0.02-0.064-0.059
			s0-0.066,0.025-0.084c0.286-0.156,0.759-0.425,1.417-0.806c0.156-0.104,0.293-0.19,0.409-0.261
			c0.117-0.068,0.215-0.125,0.293-0.169c0.034-0.017,0.137,0.003,0.306,0.059c0.169,0.057,0.313,0.119,0.436,0.188
			c0.121,0.069,0.151,0.108,0.091,0.117c-0.538,0.13-1.029,0.275-1.476,0.436s-0.916,0.349-1.41,0.565L192.034,111.54z"/>
	</g>
	<g clip-path="url(#SVGID_6_)">
		<path fill="#323335" d="M98.203,67.25c0.225,0.486,0.65,0.815,1.274,0.988c0.624,0.174,1.629,0.26,3.016,0.26
			c0.069,0,0.104,0.104,0.104,0.312s-0.035,0.312-0.104,0.312c-1.04,0-1.855-0.017-2.444-0.052l-3.64-0.052l-3.484,0.052
			c-0.624,0.035-1.474,0.052-2.548,0.052c-0.104,0-0.156-0.104-0.156-0.312s0.052-0.312,0.156-0.312c1.352,0,2.348-0.086,2.99-0.26
			c0.641-0.173,1.083-0.511,1.326-1.014c0.242-0.502,0.364-1.274,0.364-2.314V40.835c0-1.04-0.122-1.802-0.364-2.288
			c-0.243-0.485-0.685-0.823-1.326-1.014c-0.642-0.19-1.638-0.286-2.99-0.286c-0.104,0-0.156-0.104-0.156-0.312
			s0.052-0.312,0.156-0.312l2.548,0.052c1.456,0.07,2.617,0.104,3.484,0.104c0.97,0,2.184-0.034,3.64-0.104l2.444-0.052
			c0.069,0,0.104,0.104,0.104,0.312s-0.035,0.312-0.104,0.312c-1.352,0-2.349,0.104-2.99,0.312c-0.642,0.208-1.075,0.564-1.3,1.066
			c-0.226,0.503-0.338,1.274-0.338,2.314V64.91C97.865,65.985,97.978,66.765,98.203,67.25z"/>
	</g>
</g>
<g>
	<defs>
		<rect id="SVGID_7_" x="-71" y="-87.04" width="375" height="382.5"/>
	</defs>
	<clipPath id="SVGID_8_">
		<use xlink:href="#SVGID_7_"  overflow="visible"/>
	</clipPath>
	<g clip-path="url(#SVGID_8_)">
		<defs>
			<rect id="SVGID_9_" x="-71" y="-87.04" width="375" height="375"/>
		</defs>
		<clipPath id="SVGID_10_">
			<use xlink:href="#SVGID_9_"  overflow="visible"/>
		</clipPath>
		<g clip-path="url(#SVGID_10_)">
			<defs>
				<rect id="SVGID_11_" x="-71" y="-87.04" width="375" height="375"/>
			</defs>
			<clipPath id="SVGID_12_">
				<use xlink:href="#SVGID_11_"  overflow="visible"/>
			</clipPath>
		</g>
	</g>
</g>
<g>
	<defs>
		<rect id="SVGID_13_" x="-71" y="-87.04" width="375" height="375"/>
	</defs>
	<clipPath id="SVGID_14_">
		<use xlink:href="#SVGID_13_"  overflow="visible"/>
	</clipPath>
	<g clip-path="url(#SVGID_14_)">
		<path fill="#323335" d="M154.909,91.98c0.226,0.486,0.65,0.815,1.274,0.988c0.624,0.174,1.629,0.26,3.016,0.26
			c0.069,0,0.104,0.104,0.104,0.312s-0.034,0.312-0.104,0.312c-1.04,0-1.854-0.017-2.444-0.052l-3.64-0.052l-3.483,0.052
			c-0.624,0.035-1.474,0.052-2.548,0.052c-0.104,0-0.156-0.104-0.156-0.312s0.052-0.312,0.156-0.312c1.352,0,2.348-0.086,2.989-0.26
			c0.642-0.173,1.083-0.511,1.326-1.014c0.242-0.502,0.364-1.274,0.364-2.314V65.566c0-1.04-0.122-1.802-0.364-2.288
			c-0.243-0.485-0.685-0.823-1.326-1.014c-0.642-0.19-1.638-0.286-2.989-0.286c-0.104,0-0.156-0.104-0.156-0.312
			s0.052-0.312,0.156-0.312l2.548,0.052c1.456,0.07,2.617,0.104,3.483,0.104c0.971,0,2.185-0.034,3.64-0.104l2.444-0.052
			c0.069,0,0.104,0.104,0.104,0.312s-0.034,0.312-0.104,0.312c-1.352,0-2.349,0.104-2.99,0.312s-1.074,0.564-1.3,1.066
			c-0.226,0.503-0.338,1.274-0.338,2.314v23.971C154.571,90.716,154.684,91.496,154.909,91.98z"/>
	</g>
</g>
<g>
	<defs>
		<rect id="SVGID_15_" x="-71" y="-87.04" width="375" height="382.5"/>
	</defs>
	<clipPath id="SVGID_16_">
		<use xlink:href="#SVGID_15_"  overflow="visible"/>
	</clipPath>
	<g clip-path="url(#SVGID_16_)">
		<defs>
			<rect id="SVGID_17_" x="-71" y="-87.04" width="375" height="375"/>
		</defs>
		<clipPath id="SVGID_18_">
			<use xlink:href="#SVGID_17_"  overflow="visible"/>
		</clipPath>
		<g clip-path="url(#SVGID_18_)">
			<defs>
				<rect id="SVGID_19_" x="-71" y="-87.04" width="375" height="375"/>
			</defs>
			<clipPath id="SVGID_20_">
				<use xlink:href="#SVGID_19_"  overflow="visible"/>
			</clipPath>
		</g>
	</g>
</g>
<g>
	<defs>
		<rect id="SVGID_21_" x="-71" y="-87.04" width="375" height="382.5"/>
	</defs>
	<clipPath id="SVGID_22_">
		<use xlink:href="#SVGID_21_"  overflow="visible"/>
	</clipPath>
</g>
<line fill="none" stroke="#EFC873" stroke-width="1.5" x1="89.893" y1="100.456" x2="135.828" y2="28.694"/>
<g>
	<g>
		<path fill="#323335" d="M220.966,94.43c-2.962-2.551-4.978-6.374-5.681-10.761c-0.635-3.968-0.212-7.902,1.29-12.025
			c3.191-8.753,8.552-15.687,15.927-20.609c2.09-1.395,4.055-2.043,6.182-2.043l0.355,0.005c1.758,0.062,3.445,0.771,4.752,2.004
			c1.273,1.199,2.045,2.772,2.17,4.428c0.232,3.069-0.479,5.89-2.236,8.871c-1.649,2.797-3.584,5.322-5.752,7.506
			c-0.086,0.088-0.172,0.186-0.26,0.283c-0.32,0.355-0.682,0.759-1.104,0.759c-0.244,0-0.502-0.135-0.787-0.415
			c-0.293-0.285-0.441-0.529-0.453-0.746c-0.023-0.404,0.441-0.7,0.853-0.961c0.126-0.081,0.25-0.159,0.356-0.239
			c3.6-2.66,6.162-5.762,7.831-9.48c0.64-1.424,1.307-3.374,0.78-5.837c-0.354-1.657-1.133-3.024-2.256-3.953
			c-0.973-0.806-2.155-1.231-3.415-1.231c-0.538,0-1.091,0.078-1.642,0.233c-3.883,1.087-6.514,3.614-9.086,6.329
			c-5.761,6.077-9.235,11.966-10.931,18.535c-1.048,4.052-1.726,8.945,1.183,14.519c2.059,3.944,5.999,6.649,10.285,7.062
			c0.73,0.07,1.438,0.103,2.128,0.103c6.685,0,11.317-3.258,14.606-6.096c1.814-1.565,3.543-3.521,5.286-5.977
			c0.372-0.523,0.782-1.02,1.194-1.51l0.206-0.265c0.136-0.179,0.274-0.361,0.438-0.504c0.078-0.065,0.16-0.104,0.229-0.104
			c0.031,0,0.128,0,0.21,0.229c0.082,0.246-0.144,0.613-0.293,0.855l-0.086,0.144c-0.46,0.81-1.052,1.562-1.622,2.29l-0.306,0.391
			c-0.671,0.864-1.366,1.708-2.075,2.54c-1.893,2.221-3.828,3.973-5.92,5.355c-3.343,2.214-7.189,3.49-11.43,3.791
			c-0.414,0.032-0.824,0.047-1.23,0.047C226.992,97.952,223.637,96.735,220.966,94.43z"/>
	</g>
	<g>
		<path fill="#323335" d="M277.383,80.336c0.063,0.116-0.023,0.349-0.188,0.523c-2.903,3.046-6.497,5.762-10.683,8.072l-0.259,0.149
			c-0.335,0.201-0.68,0.408-1.068,0.408c-0.298,0-0.594-0.128-0.901-0.39c-0.767-0.652-0.557-1.247-0.332-1.875
			c0.044-0.129,0.09-0.255,0.123-0.377c0.508-1.813,1.326-3.469,2.133-4.99c0,0,1.053-1.941,1.281-2.374
			c0.03-0.055,0.094-0.151,0.178-0.276c0.5-0.751,1.016-1.595,0.813-2.09c-0.051-0.124-0.143-0.223-0.267-0.288
			c-0.063-0.032-0.134-0.051-0.211-0.051c-0.549,0-1.411,0.934-1.419,0.943c-0.402,0.442-0.889,1.149-0.928,2.013l-0.003,0.146
			c-0.003,0.234-0.009,0.63-0.176,0.63c-0.067,0-0.233-0.055-0.603-0.421l-0.111-0.111l-0.271,0.28
			c-0.148,0.153-0.3,0.305-0.443,0.463c-0.632,0.688-1.238,1.402-1.845,2.115c-1.339,1.572-2.723,3.201-4.37,4.532l-0.324,0.273
			c-0.503,0.432-1.072,0.922-1.719,0.922c-0.299,0-0.592-0.104-0.895-0.314c-1.209-0.838-0.894-2.053-0.615-3.124l0.068-0.273
			c0.67-2.69,1.893-5.047,3.636-6.999c1.25-1.398,2.624-2.049,4.321-2.049l0.16,0.002c0.73,0.017,1.475,0.03,1.805,0.489
			c0.531,0.735,0.994,1.079,1.452,1.079c0.438,0,0.776-0.323,1.135-0.666l0.121-0.114c0.264-0.248,0.567-0.455,0.88-0.596
			c0.262-0.12,0.512-0.234,0.773-0.234c0.203,0,0.392,0.072,0.575,0.222c0.472,0.383,0.345,0.769,0.128,1.232
			c-0.955,2.07-1.929,4.084-2.904,6.096l-0.764,1.581c-0.309,0.635-0.552,1.317-0.787,1.978l-0.227,0.625
			c-0.101,0.277-0.107,0.479-0.016,0.636c0.053,0.093,0.138,0.163,0.246,0.204c0.078,0.03,0.166,0.045,0.271,0.045
			c0.578,0,1.5-0.458,1.754-0.631c1.818-1.244,3.588-2.545,5.242-3.77c0.543-0.402,1.064-0.824,1.586-1.246
			c0.369-0.3,0.738-0.597,1.113-0.889c0.184-0.143,0.364-0.291,0.544-0.438c0.327-0.271,0.653-0.54,1.013-0.775l0.139-0.1
			c0.164-0.123,0.415-0.31,0.588-0.31C277.244,80.243,277.348,80.272,277.383,80.336z M264.668,77.509
			c-0.328-0.439-0.844-0.726-1.311-0.726c-0.066,0-0.13,0.006-0.192,0.018c-0.694,0.128-1.335,0.358-1.854,0.665
			c-2.482,1.472-3.9,3.899-5.034,6.06c-0.118,0.228-0.25,0.446-0.382,0.666c-0.317,0.531-0.646,1.081-0.797,1.726
			c-0.069,0.3-0.141,1.232,0.252,1.597c0.1,0.093,0.221,0.142,0.352,0.142c0.121,0,0.254-0.044,0.398-0.132
			c2.484-1.498,4.281-3.728,6.019-5.885c0.818-1.015,1.664-2.065,2.57-3.021C264.97,78.321,264.961,77.906,264.668,77.509z"/>
	</g>
	<g>
		<path fill="#323335" d="M303.197,68.057c0.017,0.162-0.02,0.328-0.424,0.328c-0.182,0-0.385-0.032-0.565-0.06l-0.19-0.029
			c-3.115-0.417-6.17-0.451-9.031-0.451l-2.163,0.003c-0.745,0-1.493-0.003-2.242-0.013h-0.005c-0.896,0-1.51,0.147-1.878,0.862
			l-0.745,1.447c-3.7,7.173-7.525,14.592-9.615,22.884c-0.837,3.313-1.201,6.139-1.146,8.899c0.002,0.107-0.002,0.219-0.006,0.329
			c-0.012,0.471-0.027,0.955,0.32,1.331c0.242,0.262,0.617,0.421,1.147,0.484c0.093,0.011,0.183,0.057,0.257,0.129
			c0.105,0.104,0.176,0.252,0.194,0.406c0.047,0.419-0.232,0.51-0.476,0.514h-0.045c-1.244,0-2.022-0.573-2.377-1.754
			c-0.373-1.24-0.266-2.407-0.161-3.536l0.032-0.356c0.665-7.664,3.451-14.415,6.146-20.944l0.235-0.568
			c0.877-2.126,1.908-4.207,2.906-6.218c0.48-0.963,0.957-1.925,1.421-2.897c0.14-0.277,0.282-0.556-0.214-1.351l-0.055-0.087
			h-0.092c-1.279,0-2.572-0.014-3.876-0.025c-1.324-0.012-2.659-0.024-3.994-0.024c-2.165,0-3.929,0.033-5.554,0.104
			c-0.684,0.029-1.376,0.035-2.07,0.04c-1.756,0.012-3.572,0.026-5.23,0.451c-0.196,0.051-0.406,0.098-0.618,0.098
			c-0.208,0-0.372-0.047-0.489-0.141c-0.107-0.088-0.188-0.225-0.235-0.407c-0.075-0.285,0.03-0.387,0.403-0.387
			c0.089,0,0.556,0.022,0.556,0.022l0.129-0.006c3.181-0.296,6.411-0.333,8.869-0.333c1.313,0,2.632,0.012,3.948,0.024
			c1.318,0.013,2.635,0.025,3.95,0.025c1.244,0,2.485-0.011,3.72-0.044c1.221-0.03,2.149-0.289,2.714-1.449
			c1.228-2.516,2.842-4.851,4.938-7.138c0.058-0.065,0.117-0.144,0.179-0.225c0.174-0.229,0.371-0.488,0.635-0.488
			c0.146,0,0.311,0.081,0.506,0.247c0.547,0.473,0.334,0.868-0.051,1.416c-0.431,0.614-0.822,1.15-1.217,1.691
			c-1.254,1.719-2.55,3.494-3.616,5.701l-0.103,0.21l3.753-0.005c3.048,0,6.383,0.215,10.194,0.657
			c0.09,0.01,0.193,0.015,0.301,0.019c0.312,0.013,0.665,0.024,0.857,0.204C303.121,67.741,303.179,67.875,303.197,68.057z"/>
	</g>
	<g>
		<path fill="#323335" d="M303.565,82.042c0.089,0.285-0.288,0.58-0.537,0.774l-0.277,0.217c-2.982,2.328-6.069,4.738-10.463,4.738
			l-0.203-0.002c-1.392-0.017-2.569-0.484-3.32-1.322c-0.706-0.788-0.967-1.852-0.733-2.994c0.785-3.854,3.329-6.379,7.558-7.505
			c0.226-0.059,0.447-0.089,0.662-0.089c0.688,0,1.257,0.303,1.688,0.9c0.649,0.896,0.266,1.499-0.259,2.137
			c-1.175,1.433-2.954,2.285-5.601,2.685c-1.893,0.285-2.185,1.677-2.467,3.021l-0.062,0.292c-0.085,0.394-0.005,0.779,0.229,1.113
			c0.289,0.41,0.792,0.731,1.454,0.922c0.538,0.154,1.068,0.23,1.62,0.23c0.926,0,1.742-0.206,2.71-0.476
			c1.512-0.423,2.977-1.126,4.48-2.15c0.654-0.444,1.3-0.939,1.976-1.516c0.115-0.097,0.226-0.204,0.337-0.312
			c0.171-0.165,0.343-0.331,0.534-0.464C303.07,82.125,303.34,82.045,303.565,82.042z M292.295,80.401l0.448-0.104
			c1.968-0.458,3.306-1.048,4.318-2.716l0.204-0.335l-0.396,0.123c-1.673,0.521-3.046,1.18-4.304,2.703L292.295,80.401z"/>
	</g>
	<g>
		<path fill="#323335" d="M324.269,82.078c0.021,0.063-0.027,0.172-0.187,0.266c-0.484,0.281-1.057,0.425-1.702,0.425
			c-1.606,0-3.437-0.899-4.662-2.29c-1.044-1.185-1.519-1.724-2.104-1.724c-0.439,0-0.893,0.324-1.646,0.861
			c-2.7,1.926-5.012,4.31-7.249,6.614l-1.05,1.08c-0.078,0.079-0.151,0.176-0.226,0.272c-0.184,0.24-0.373,0.489-0.656,0.489
			c-0.168,0-0.364-0.085-0.6-0.258c-0.628-0.464-0.459-0.95-0.296-1.419l0.062-0.186c1.138-3.629,2.507-6.73,4.188-9.483
			l0.064-0.106c0.197-0.331,0.443-0.741,0.806-0.741c0.113,0,0.233,0.041,0.367,0.122c0.218,0.133,0.354,0.271,0.413,0.421
			c0.116,0.288-0.058,0.614-0.209,0.901c-0.056,0.104-0.11,0.205-0.149,0.301l-0.333,0.818c-0.357,0.878-0.716,1.757-1.099,2.618
			c-0.25,0.563-0.512,1.122-0.793,1.668c-0.006,0.011-0.577,1.327-0.387,1.577l0.057,0.073l0.107,0.015
			c0.552-0.132,0.911-0.51,1.259-0.876c0.143-0.148,0.28-0.293,0.425-0.417l1.775-1.502c1.124-0.95,2.261-1.889,3.431-2.789
			c0.798-0.611,1.302-0.861,1.743-0.861c0.686,0,1.348,0.659,2.405,1.957c1.189,1.458,2.849,2.329,4.439,2.329
			c0.257,0,0.512-0.023,0.764-0.069c0.102-0.02,0.206-0.066,0.315-0.116c0.14-0.063,0.282-0.129,0.41-0.129
			C324.166,81.97,324.251,82.024,324.269,82.078z"/>
	</g>
	<g>
		<path fill="#323335" d="M340.844,82.139c0.004,0.422-0.664,0.762-0.921,0.979c-0.984,0.831-1.99,1.641-3.051,2.389
			c-2.15,1.516-4.535,2.779-7.259,3.461c-1.151,0.289-2.388,0.492-3.633-0.6c-1.267-1.111-1.22-2.396-0.927-3.484
			c1.044-3.882,2.938-7.215,5.534-10.062c0.322-0.352,0.689-0.945,1.433-0.354c0.771,0.615,0.229,1.089-0.02,1.484
			c-1.796,2.853-3.598,5.7-4.901,8.88c-0.345,0.843-1.173,1.831-0.191,2.817c1.037,1.041,2.39,0.608,3.413,0.359
			c2.175-0.526,4.026-1.596,5.71-2.825c0.517-0.376,4.184-3.82,4.688-3.415C340.799,81.834,340.843,81.96,340.844,82.139z
			 M332.634,71.56c-0.279-1.13,0.296-1.541,1.274-1.607c0.677-0.046,1.21,0.225,1.465,1.125c0.063,0.923-0.584,1.285-1.506,1.375
			C333.248,72.511,332.809,72.27,332.634,71.56z"/>
	</g>
	<g>
		<path fill="#323335" d="M366.203,81.733c0.055,0.204-0.141,0.414-0.314,0.6c-0.082,0.087-0.16,0.172-0.212,0.253
			c-2.35,3.64-5.615,6.609-9.984,9.08c-0.455,0.258-1.001,0.383-1.72,0.395h-0.07c-0.713,0-1.265-0.185-1.642-0.548
			c-0.389-0.377-0.584-0.935-0.581-1.663c0.005-1.314,0.612-2.322,1.198-3.297l0.406-0.681c0.196-0.329,0.392-0.659,0.542-1.017
			l0.06-0.125c0.12-0.24,0.284-0.573-0.098-0.961c-0.215-0.219-0.483-0.329-0.799-0.329c-0.125,0-0.254,0.018-0.396,0.051
			c-1.098,0.269-2.236,0.547-3.324,0.923c-1.441,0.498-2.744,1.229-4.004,1.936c-0.555,0.309-1.108,0.618-1.674,0.912l-0.156,0.082
			c-0.258,0.142-0.525,0.286-0.823,0.286c-0.262,0-0.524-0.117-0.803-0.359c-0.595-0.518-0.483-0.997-0.365-1.505l0.038-0.163
			c0.496-2.327,1.36-4.421,2.567-6.227l0.082-0.129c0.131-0.211,0.278-0.451,0.526-0.451c0.082,0,0.173,0.025,0.277,0.077
			c0.181,0.089,0.305,0.206,0.379,0.359c0.268,0.55-0.145,1.43-0.391,1.955c-0.063,0.133-0.116,0.247-0.149,0.335l-1.493,3.865
			c-0.037,0.099-0.153,0.402,0.072,0.602c0.095,0.087,0.226,0.128,0.397,0.128c0.375,0,0.903-0.206,1.087-0.301
			c0.252-0.132,0.48-0.291,0.71-0.451c0.263-0.182,0.524-0.365,0.821-0.501c0.924-0.424,1.853-0.838,2.799-1.228
			c1.173-0.479,2.245-0.785,3.278-0.931c0.157-0.021,0.308-0.031,0.455-0.031c0.729,0,1.353,0.258,1.762,0.726
			c0.446,0.512,0.583,1.211,0.385,1.967c-0.253,0.961-0.64,1.884-1.013,2.776c-0.21,0.501-0.418,1-0.607,1.512l-0.071,0.171
			c-0.129,0.3-0.308,0.708,0.063,1.091c0.212,0.219,0.468,0.329,0.766,0.329c0.242,0,0.474-0.071,0.679-0.135
			c2.671-0.811,4.574-2.545,6.151-4.107c1.319-1.306,2.958-2.932,4.014-4.928l0.061-0.117c0.139-0.275,0.328-0.651,0.586-0.651
			c0.068,0,0.141,0.027,0.225,0.086C366.072,81.513,366.175,81.629,366.203,81.733z"/>
	</g>
	<g>
		<path fill="#323335" d="M389.864,80.962c0.063,0.36-0.771,0.586-1.125,0.682c-0.111,0.03-0.203,0.056-0.259,0.076
			c-2.085,0.766-3.937,1.51-5.471,2.853c-1.392,1.219-2.525,2.821-3.367,4.763c-2.222,5.136-5.552,9.931-10.177,14.66
			c-1.004,1.027-2.126,2.051-3.82,2.314c-0.232,0.035-0.467,0.061-0.701,0.061c-0.711,0-1.271-0.229-1.763-0.723
			c-0.791-0.793-0.704-1.649-0.515-2.383c0.493-1.917,1.756-3.323,2.979-4.685c4.995-5.563,9.244-10.112,14.642-13.823
			c1.305-0.895,1.597-2.474,1.88-3.999l0.122-0.644c0.073-0.364,0.011-0.66-0.187-0.878c-0.137-0.152-0.406-0.335-0.915-0.335
			c-0.064,0-0.132,0.003-0.203,0.009c-1.867,0.158-4.072,2.615-3.999,4.454c0.012,0.314,0.005,0.526-0.212,0.589
			c-0.054,0.018-0.109,0.025-0.162,0.025c-0.18,0-0.241-0.09-0.276-0.179c-0.168-0.416-0.438-0.969-0.829-0.969
			c-0.252,0-0.428,0.251-0.582,0.471c-0.066,0.094-0.13,0.185-0.183,0.229c-0.36,0.296-0.714,0.603-1.065,0.909
			c-0.995,0.865-2.024,1.762-3.261,2.38c-0.495,0.248-0.982,0.47-1.51,0.47c-0.452,0-0.885-0.168-1.319-0.512
			c-1.134-0.9-0.903-1.928-0.699-2.834c0.609-2.715,2.066-4.589,4.327-5.566c0.591-0.255,1.118-0.381,1.614-0.381
			c1.114,0,2.099,0.63,3.19,2.043c0.227,0.293,0.475,0.563,0.749,0.563c0.156,0,0.283-0.084,0.441-0.191l0.154-0.104
			c0.876-0.578,1.781-1.18,2.754-1.646c0.408-0.195,0.764-0.292,1.089-0.292c0.357,0,0.674,0.112,0.97,0.34
			c0.753,0.584,0.759,1.379,0.694,2.21c-0.032,0.407-0.098,0.803-0.176,1.29l-0.127,0.814l0.267,0.104
			c0.052-0.143,0.894-0.422,1.253-0.539c0.189-0.063,0.345-0.116,0.417-0.147c0.629-0.284,1.19-0.538,1.767-0.767
			c0.674-0.268,1.443-0.491,2.424-0.706c0.157-0.035,0.464-0.093,0.745-0.093C389.742,80.875,389.841,80.944,389.864,80.962z
			 M379.292,87.258l-0.216-0.201c-2.651,1.64-4.825,3.731-6.779,5.748c-0.738,0.76-1.504,1.491-2.271,2.226
			c-2.085,1.991-4.239,4.051-5.731,6.645l-0.206,0.341c-0.502,0.809-1.124,1.812-0.138,2.672c0.286,0.25,0.6,0.378,0.927,0.378
			c0.675,0,1.295-0.542,1.793-0.976l0.207-0.181C372.321,99.305,375.995,93.158,379.292,87.258z M375.026,81.074
			c-0.424-0.59-1.05-1.267-2.15-1.271h-0.016l-0.014,0.003c-2.479,0.639-4.111,2.229-4.854,4.729
			c-0.131,0.443-0.33,1.114,0.287,1.625c0.21,0.173,0.437,0.26,0.675,0.26c0.294,0,0.563-0.126,0.822-0.25
			c1.635-0.76,2.859-1.841,4.044-2.886c0.269-0.237,0.537-0.473,0.809-0.706c0.061-0.052,0.128-0.101,0.195-0.15
			C375.17,82.179,375.599,81.871,375.026,81.074z"/>
	</g>
</g>
<rect x="-71" y="-87.04" fill-rule="evenodd" clip-rule="evenodd" fill="none" width="375" height="375"/>
<path fill="#323335" d="M144.744,61.354l-2.184,0.052c-0.901,0.07-1.716,0.104-2.443,0.104c-0.902,0-1.942-0.034-3.12-0.104
	l-2.08-0.052c-0.104,0-0.156,0.104-0.156,0.312s0.053,0.312,0.156,0.312c1.456,0,2.504,0.139,3.146,0.416
	c0.642,0.278,0.962,0.728,0.962,1.352c0,0.416-0.121,0.919-0.363,1.508l-10.036,24.907l-8.638-19.06l-1.812,3.001l8.993,19.699
	c0.104,0.138,0.295,0.208,0.572,0.208c0.347,0,0.537-0.07,0.572-0.208l11.439-28.235c0.589-1.386,1.273-2.331,2.054-2.834
	c0.78-0.502,1.759-0.754,2.938-0.754c0.104,0,0.156-0.104,0.156-0.312S144.849,61.354,144.744,61.354z"/>
</svg>
